PathFileType	4	(X/Y/Z)	 s03c0403.trc
DataRate	CameraRate	NumFrames	NumMarkers	Units	OrigDataRate	OrigDataStartFrame	OrigNumFrames
200	200	5	52	mm	200	1	2000
Frame#	Time	racr			lacr			c7			jug			rlel			rdr			llel			ldr			s2			lic			ric			lasi			rasi			rpsi			lpsi			rgt			lgt			rth1			rth2			rth3			rth4			rlfc			rmfc			rsh1			rsh2			rsh3			rsh4			rlmal			rmmal			rcal			rtoe			rmt5			rmt1			lth1			lth2			lth4			lth3			llfc			lmfc			lsh1			lsh2			lsh3			lsh4			llmal			lmmal			lcal			ltoe			lmt1			lmt5			SBIKE			LBIKE			RBIKE			
		X1	Y1	Z1	X2	Y2	Z2	X3	Y3	Z3	X4	Y4	Z4	X5	Y5	Z5	X6	Y6	Z6	X7	Y7	Z7	X8	Y8	Z8	X9	Y9	Z9	X10	Y10	Z10	X11	Y11	Z11	X12	Y12	Z12	X13	Y13	Z13	X14	Y14	Z14	X15	Y15	Z15	X16	Y16	Z16	X17	Y17	Z17	X18	Y18	Z18	X19	Y19	Z19	X20	Y20	Z20	X21	Y21	Z21	X22	Y22	Z22	X23	Y23	Z23	X24	Y24	Z24	X25	Y25	Z25	X26	Y26	Z26	X27	Y27	Z27	X28	Y28	Z28	X29	Y29	Z29	X30	Y30	Z30	X31	Y31	Z31	X32	Y32	Z32	X33	Y33	Z33	X34	Y34	Z34	X35	Y35	Z35	X36	Y36	Z36	X37	Y37	Z37	X38	Y38	Z38	X39	Y39	Z39	X40	Y40	Z40	X41	Y41	Z41	X42	Y42	Z42	X43	Y43	Z43	X44	Y44	Z44	X45	Y45	Z45	X46	Y46	Z46	X47	Y47	Z47	X48	Y48	Z48	X49	Y49	Z49	X50	Y50	Z50	X51	Y51	Z51	X52	Y52	Z52	
1	0.0050	493.461954	1453.673609	-72.927131	488.524711	1479.556280	-388.719544	407.473990	1532.373803	-227.263696	464.700499	1367.341474	-227.368217	524.279066	1182.626305	30.492183	740.270294	989.633536	-12.070479	541.645004	1208.772934	-469.273427	742.954239	981.820269	-433.125714	-81.816020	1205.722077	-246.121578	113.613380	1211.314085	-426.709793	92.318549	1238.957211	-58.042338	122.576966	1132.001850	-384.095110	106.998883	1170.966553	-98.935908	-55.116759	1258.122087	-202.566548	-44.914929	1251.072085	-285.841248	30.090498	1161.945486	-37.077674	42.139380	1099.278887	-434.447084	151.514602	1071.366729	-15.484414	240.158505	1065.903945	-11.565215	313.660229	1020.512954	-11.438582	252.482754	1098.329479	-24.531479	433.331475	954.110525	-29.013784	443.358323	940.261223	-152.341799	364.768292	803.790129	-16.226305	346.394429	718.461014	-34.207407	284.483073	654.720912	-41.369368	371.720948	708.000461	-60.703888	218.614177	539.581067	-68.493527	245.803410	555.220662	-155.791934	152.625874	492.139923	-111.825415	462.492636	495.270663	-105.558497	342.913100	473.743117	-38.405292	369.808709	492.746167	-152.110192	107.556969	954.554973	-454.786254	164.233364	888.851196	-455.178963	197.015673	904.728523	-449.588578	181.379587	801.750224	-445.108026	251.362705	690.419701	-426.456190	254.903331	680.391491	-302.666661	154.937768	545.545147	-448.041879	137.538038	464.291863	-429.214972	77.357271	395.783178	-420.549063	165.476709	452.708250	-403.879805	13.295739	284.568906	-398.798287	NaN	NaN	NaN	-56.814185	239.872721	-348.374868	251.269012	217.201524	-355.268137	158.209512	217.377840	-310.231662	129.258572	199.351491	-425.102614	-211.994056	946.947826	-227.837446	-4.198353	83.341711	-432.159927	-9.236773	81.168976	-32.245447	
2	0.0100	493.449612	1453.668534	-72.933343	488.533482	1479.538848	-388.707242	407.472608	1532.375246	-227.188503	464.702133	1367.359215	-227.305287	524.250420	1182.621003	30.504880	740.250356	989.630291	-12.091774	541.630379	1208.755180	-469.245492	742.934697	981.822907	-433.118584	-81.800548	1205.740751	-246.129473	113.614290	1211.292451	-426.710838	92.310869	1238.953315	-58.056089	122.570114	1131.987009	-384.067170	106.960434	1171.047051	-98.894556	-55.105782	1258.128897	-202.574624	-45.024667	1251.121227	-285.846046	30.095526	1161.944809	-37.075981	42.131873	1099.286155	-434.452851	151.548865	1071.369933	-15.501715	240.174417	1065.919801	-11.581887	313.666679	1020.528981	-11.447567	252.497105	1098.373580	-24.494538	433.327948	954.134301	-28.996115	443.359711	940.279863	-152.309228	364.771615	803.802177	-16.218197	346.400507	718.450792	-34.179818	284.466815	654.737824	-41.367719	371.726748	708.015325	-60.696627	218.601356	539.618194	-68.478084	245.769403	555.245912	-155.789393	152.615513	492.183160	-111.831529	462.476191	495.293570	-105.545305	342.926067	473.748213	-38.412233	369.794326	492.763766	-152.105001	107.557613	954.542106	-454.784297	164.235201	888.840351	-455.178945	197.013880	904.705535	-449.587407	181.370439	801.742946	-445.090857	251.351204	690.415172	-426.449934	254.890019	680.395997	-302.661948	154.915734	545.527077	-448.049172	137.531492	464.275849	-429.197810	77.373680	395.738411	-420.529258	165.470153	452.687716	-403.856947	13.286129	284.552948	-398.799890	NaN	NaN	NaN	-56.815479	239.846628	-348.382311	251.277765	217.222209	-355.238156	158.207477	217.374714	-310.232960	129.258173	199.343682	-425.101194	-211.985094	946.954203	-227.849870	-4.210823	83.255499	-432.210440	-9.244052	81.189697	-32.237540	
3	0.0150	493.461442	1453.634084	-72.931697	488.510047	1479.535211	-388.685967	407.484338	1532.372163	-227.205975	464.645136	1367.367957	-227.284901	524.217317	1182.591781	30.504171	740.233409	989.636951	-12.101928	541.629349	1208.752693	-469.205345	742.942888	981.819106	-433.128631	-81.808269	1205.740467	-246.129860	112.983052	1210.894142	-425.469628	92.303731	1238.960376	-58.056822	122.575613	1132.000107	-384.124776	106.965652	1171.044240	-98.901025	-55.098001	1258.116833	-202.590028	-45.040261	1251.127417	-285.831400	30.089932	1161.951215	-37.071037	42.124453	1099.272918	-434.466423	151.523145	1071.380339	-15.487448	240.176157	1065.929955	-11.591272	313.674758	1020.556429	-11.444881	252.472579	1098.395028	-24.499936	433.327904	954.151455	-28.995759	443.359711	940.279863	-152.309228	364.773035	803.815941	-16.222657	346.389150	718.486181	-34.181337	284.460529	654.753153	-41.369042	371.725205	708.025655	-60.674188	218.587736	539.624439	-68.478514	245.772357	555.276523	-155.775366	152.615566	492.194311	-111.829010	462.472997	495.297506	-105.547198	342.914949	473.754314	-38.410034	369.784528	492.761283	-152.111875	107.549360	954.534190	-454.785076	164.225784	888.825996	-455.166160	197.014554	904.698607	-449.577765	181.365691	801.732380	-445.083055	251.339950	690.399917	-426.434895	254.848141	680.381930	-302.650408	154.907871	545.512372	-448.021805	137.532731	464.261648	-429.199118	77.367354	395.716190	-420.519983	165.444926	452.685494	-403.835449	13.283248	284.532152	-398.802317	NaN	NaN	NaN	-56.807279	239.825590	-348.383992	251.261735	217.262883	-355.232879	158.218055	217.376046	-310.232189	129.265042	199.342890	-425.112488	-211.983475	946.951669	-227.829235	-4.223397	83.251225	-432.211977	-9.245034	81.171828	-32.247376	
4	0.0200	493.444743	1453.640309	-72.946492	488.500143	1479.532231	-388.663226	407.480663	1532.395557	-227.195408	462.153951	1367.304725	-228.733169	524.194218	1182.581266	30.513877	740.222979	989.634683	-12.121847	542.227796	1208.709753	-468.501198	742.938708	981.817226	-433.114281	-81.798297	1205.750328	-246.132604	112.562408	1210.624830	-424.642350	92.669913	1238.947169	-58.017246	122.257872	1130.762243	-381.553510	106.960434	1171.047051	-98.894556	-55.090447	1258.120395	-202.600704	-45.042683	1251.124405	-285.845419	30.086942	1161.964877	-37.065118	41.856188	1099.333952	-434.798067	151.429295	1071.372696	-15.487779	240.168836	1065.958350	-11.587693	313.816280	1020.540720	-11.313623	251.674885	1098.834447	-25.256100	434.279885	953.554192	-28.800135	443.624081	941.400854	-154.462141	364.767588	803.828638	-16.208313	346.388335	718.498218	-34.181385	284.461942	654.769608	-41.360772	373.034557	708.937230	-60.339690	218.580582	539.654796	-68.479651	245.630633	555.374526	-155.731112	152.611674	492.220863	-111.823530	462.462002	495.297126	-105.545697	342.899771	473.775474	-38.411565	369.789224	492.781642	-152.109554	107.506864	954.506189	-454.839264	164.746322	887.949871	-453.416858	197.457997	904.148752	-448.499858	181.336673	801.709793	-445.077437	251.879577	689.750464	-425.215461	254.819294	680.371635	-302.638069	155.500546	544.622892	-446.525098	137.860932	463.107716	-427.049009	77.357655	395.701825	-420.512619	165.798230	451.751443	-402.050969	13.146059	284.923012	-399.498363	NaN	NaN	NaN	-56.811872	239.799457	-348.384686	251.606720	217.221973	-355.078419	158.687524	216.024540	-308.613766	129.905916	197.686676	-422.893974	-212.028336	946.951710	-228.073752	-4.217852	83.262671	-432.210812	-9.266574	81.171606	-32.261373	
5	0.0250	493.568419	1453.548913	-73.149500	488.486417	1479.509594	-388.641070	407.591193	1532.499055	-227.808331	462.023578	1367.872209	-230.446050	523.272298	1182.895536	29.622712	739.732572	989.849617	-12.696620	541.604223	1209.243964	-469.887889	742.627388	982.091552	-433.758088	-81.757743	1205.868921	-246.122196	112.395698	1210.709111	-424.638651	92.654136	1238.977509	-58.140750	122.416344	1131.508531	-382.860945	106.932255	1171.063801	-98.898097	-55.082900	1258.197752	-202.644095	-44.968233	1251.180844	-285.867448	30.126659	1162.016659	-37.070514	41.947895	1099.334594	-434.763831	151.580172	1071.412868	-15.512756	240.241559	1065.979613	-11.626909	313.853765	1020.537493	-11.412643	251.800278	1098.831283	-25.365862	432.170758	954.695122	-29.837323	443.101907	942.029697	-155.700674	364.842812	803.850459	-16.245131	345.585413	718.818358	-35.024954	284.486497	654.763162	-41.392560	372.417577	709.222588	-61.163334	218.636408	539.619908	-68.545822	245.593538	555.384900	-155.685127	152.622646	492.237747	-111.746504	462.505898	495.302036	-105.601571	342.974667	473.774766	-38.442554	369.816572	492.810403	-152.202952	107.493126	954.537671	-454.800189	164.380581	888.477328	-454.406394	197.060589	904.699593	-449.475620	181.341234	801.706060	-445.053669	251.478179	690.145513	-425.938104	254.216937	680.801560	-303.270428	154.876471	545.481333	-447.989804	137.678266	464.406805	-429.404044	76.853769	396.492806	-421.558913	165.374712	452.229034	-402.886124	13.161661	284.922979	-399.536685	NaN	NaN	NaN	-56.824276	239.781944	-348.347228	251.201746	217.728865	-355.609945	158.262512	217.434887	-310.175576	129.480446	198.622478	-424.139405	-212.045534	946.955315	-228.051597	-4.630123	83.805923	-432.875389	-9.257651	81.170134	-32.320489	
